<?xml version="1.0" standalone="no"?>
<!DOCTYPE svg PUBLIC "-//W3C//DTD SVG 1.1//EN" "http://www.w3.org/Graphics/SVG/1.1/DTD/svg11.dtd">
<svg viewBox="0 0 450 450" width="450px" height="450px" version="1.1" xmlns="http://www.w3.org/2000/svg">
	<path d="M 149 225 C 149 183.5781 182.5781 150 224 150 C 265.4219 150 299 183.5781 299 225 C 299 266.4219 265.4219 300 224 300 C 182.5781 300 149 266.4219 149 225 Z"/>
	<path d="M 273.77 444.7 C 374.5864 422.4195 450 332.5175 450 225 C 450 100.895 349.524 0.2601 225.48 0 C 188.779 33.2175 160.2414 75.2884 143.24 122.845 C 165.4918 105.3999 193.532 95 224 95 C 296.3503 95 355 153.6498 355 226 C 355 309.5826 324.3899 386.0151 273.77 444.7 Z"/>
	<path d="M 224 357 C 193.9924 357 166.3421 346.9111 144.255 329.94 C 161.2892 376.1454 189.2483 417.0628 225 449.56 C 261.3231 416.5435 289.6042 374.8347 306.555 327.72 C 284.0249 346.0271 255.2934 357 224 357 Z"/>
	<path d="M 0 225 C 0 331.6327 74.1767 420.9375 173.745 444.135 C 123.415 385.5248 93 309.315 93 226 C 93 141.4989 124.2856 64.3041 175.905 5.37 C 75.2506 27.7706 0 117.5971 0 225 Z"/>
</svg>